<svg xmlns="http://www.w3.org/2000/svg" width="681" height="300" fill="none"><rect width="681" height="300" fill="#F7F8F9" rx="10" transform="matrix(-1 0 0 1 681 0)"/><path fill="#6A7179" d="M220 102h6v167h-6z"/><rect width="67" height="67" x="190" y="36" fill="#D9D9D9" rx="6"/><path fill="#fff" d="M212 85.585V53h12.703c7.456.046 11.69 4.602 11.69 11.046 0 6.443-4.326 10.954-11.782 10.954h-5.891v10.585H212zm6.72-16.016h4.786c4.004-.046 5.937-2.301 5.891-5.523.046-3.268-1.887-5.477-5.891-5.431h-4.786v10.954z"/><path fill="#CDD3D6" d="M0 263.431h681V300H0z"/><g clip-path="url(#a)"><path fill="#373838" d="M437.471 232.563s.092-4.34-.395-4.803c-1.508-1.412-4.348 1.31-4.814.893-.266-.255-4.699.849-5.237.634-3.784-1.777-6.827-2.248-9.697-2.355-2.307-.004-3.618-.009-5.528.448-1.909.457-3.91.979-6.378 2.171-2.468 1.191-4.557 2.661-6.316 4.569-4.965 4.824-6.481 11.237-6.483 11.327l-83.931-1.788-3.662-.078s-.33-.437-.666-.58c-.538-.237-1.036-.18-1.036-.18l-13.897-36.638-3.319-8.732s.377-.693.254-1.306c-.095-.862-.427-1.185-.427-1.185l.319-1.192-.464-.508-.898-.29-1.686-.488.073-.248-4.674-1.366-.074.248-1.573-.464-.763-.265-.683.212c-.024.067-1.663 5.867-3.785 13.149-1.147 3.933-2.548 8.132-3.465 11.867-.024.067-.169.539-.169.539s-.562 1.955-.563 2.001c.067.046.337.12.312.187-.247.99-.883 3.238-.883 3.238l.174.32.697.196s-1.809 5.321-1.981 5.951c-.023.044-1.301-.503-3.391-1.113-4.903-1.28-10.283-.309-12.883.721-1.527.532-2.599.985-3.102 1.245a2.348 2.348 0 0 0-.029.294s1.604 1.119 2.073 1.401c1.651 1.052 3.206 1.312 3.206 1.312s-3.69 1.233-5.25 2.262c-1.099.678-2.131 1.335-3.261 2.373-1.52 1.257-3.658 3.948-4.888 6.5-.637 1.253-1.14 2.554-1.433 3.565-.607 1.954-.772 4.393-.755 5.728-.064 3.006.709 6.008 1.589 8.22.579 1.46 1.211 2.582 1.627 3.224 2.778 4.424 5.527 5.952 8.029 7.408 1.837.83 1.092.769 5.88 2.092 1.938.358 4.239.588 7.21.199 4.652-.76 9.112-3.085 11.725-5.811 5.778-5.802 6.274-12.101 6.321-13.253.021-.972.074-1.355.082-1.717.176.23.816.945 1.44 1.388a97.708 97.708 0 0 0 1.735 1.348s.093-.111.162-.177c.419-1.62.437-6.708-.253-9.323-1.669-6.571-3.579-8.218-4.673-9.937-.066-.114-3.819-4.378-5.559-5.523-.043-.114.784-2.81.784-2.81l1.254-4.723s.731-.346 1.419-.829c.37-.377.4-.715.493-.826.505-.351.824-.458 1.726-.348.743.174 1.033.361 1.169.319.171-.584 1.323-4.766 1.323-4.766s.286-.672.457-1.279c.516.192.955-.229.955-.229s10.405 27.473 10.449 27.541c-1.068.249-1.02 1.177-1.02 1.177l-5.064-.108c-.203-.004-.479.216-.531.509-.201.968.197 1.384.197 1.384l3.823 3.112 1.838.808 2.647 9.487.994.021.496.101 99.869 2.037 2.064-.295s1.412 3.762 4.022 6.508c3.015 3.932 8.748 6.564 14.304 6.909 4.628.347 5.798-.397 8.141-1.048 9.669-3.774 14.226-10.688 14.387-18.26.045-2.08-.143-4.933-.16-5.182.111.092-.094.156 1.06 1.153.534.418 1.357 1.092 2.247 1.767.092-.089.162-.155.323-.288.012-.587-3.65-19.752-3.65-19.752zm-165.946 20.096c-.159 7.482-6.369 13.433-13.852 13.274-7.482-.159-13.433-6.37-13.273-13.852.159-7.482 6.369-13.433 13.851-13.273 7.483.159 13.434 6.369 13.274 13.851zm144.819 15.162c-6.33-.135-11.672-4.115-13.794-9.633-.663-1.756 1.077-.633 1.249-.223 1.884 4.971 6.762 8.467 12.413 8.587 7.55.161 13.807-5.834 13.968-13.384.16-7.55-5.835-13.806-13.385-13.967a13.682 13.682 0 0 0-11.709 6.128c-.698-.151-1.261-.276-1.261-.276s-.067-.002-.021-.068c2.716-4.33 7.661-7.187 13.177-7.069 8.318.177 14.935 7.012 14.759 15.262-.176 8.251-7.078 14.821-15.396 14.643z"/><path fill="#BBD98E" d="m392.622 245.471-83.93-1.811-3.662-.078s-.33-.437-.666-.58c-.538-.238-1.036-.18-1.036-.18l-11.756-30.984-.066-.092-.151-.343-.042-.114-1.904-5.129-3.212-8.458s.357-.807.257-1.419c-.095-.862-.515-1.323-.515-1.323l.146-.494.196-.697-.674-.196-8.586-2.512-1.1-.34-.36-.098c-.024.067-1.685 5.844-3.808 13.126-1.146 3.933-1.791 5.548-2.708 9.282-.024.067 10.766 3.124 10.766 3.124s.074-.27.268-.899c.516.192.954-.183.954-.183s10.407 27.405 10.45 27.474c-1.068.248-1.02 1.176-1.02 1.176s16.615.354 16.614.377c0 .023-.016 1.809-.05 2.328a452.682 452.682 0 0 0 2.367 3.579l-18.807-.401.405 1.139 1.913 6.803.514 1.368.994.021.496.101 99.868 2.037 2.065-.295s10.978-1.552 18.396-2.616c.183-.086.342-.151.417-.488.009-.407.001-1.086.008-1.425-2.609.374-8.03 1.163-10.389 1.475-2.451.423-3.465-1.906-3.467-2.856-.159-2.106 1.944-3.124 2.577-3.111 3.357-.471 7.373-1.086 11.75-1.694 1.745-.167 3.327.93 3.489 2.878.062 2.421-2.214 3.074-2.213 3.051l-.025 1.153c.011.566.576.555.714.468.001-.023 3.705-.894 3.779-5.393-.517-4.42-4.69-4.916-4.734-4.985-1.04 0-4.589-.098-9.516-.203-.254.243-1.615 2.566-5.352 3.889-3.894 1.229-6.952 1.48-11.002 1.552.058-2.713.07-4.318.149-6.985l1.199-.019zm-111.578-71.286 21.621-74.326 9.439 2.756-21.62 74.327-9.44-2.757z"/><path fill="#373838" d="M303.014 81.211c-.053 2.51-2.289 4.497-4.979 4.44-2.69-.057-4.839-2.139-4.786-4.648.054-2.509 2.29-4.496 4.98-4.44 2.689.058 4.839 2.14 4.785 4.648z"/><path fill="#393838" d="M291.059 177.451c.097-.314-.194-.411-.194-.411s-10.07-2.928-10.182-2.953c-.248-.051-.39.24-.39.24l-4.637 15.981 10.766 3.124c-.023-.001 4.589-15.846 4.637-15.981z"/><mask id="b" width="7" height="9" x="265" y="222" maskUnits="userSpaceOnUse" style="mask-type:luminance"><path fill="#fff" d="m269.716 230.504 2.211-7.213-4.046-1.171-2.225 6.805 4.06 1.579z"/></mask><g mask="url(#b)"><path fill="#fff" d="m263.722 229.447 2.814-8.941 7.548 2.377-2.814 8.941-7.548-2.377z"/></g><path fill="#FCD703" d="M416.341 251.947c-1.7.212-11.727 1.672-11.727 1.672-.59.078-.986.635-.886 1.225.078.59.635 1.009 1.224.931 0 0 10.615-1.448 11.773-1.694 1.271-.177 1.27-2.257-.384-2.134z"/><path fill="#373838" d="M289.101 81.503s.227-.018.383.053l-.383-.053z"/><path fill="#373838" d="m319.412 77.987-24.777-5.707c-.045-.001-.091.02-.092.066l-.344 1.259-.823 4.686.015.362.427.1-.362 1.1s-1.183.314-1.752.483c-.569.169-.629.891-.629.891s-1.477.33-1.614.35c-.136.02-.383-.053-.383-.053l-.998.16s-.546.124-.568.123c-.023 0-3.301.993-3.301.993l-.677-.037s-.853-.29-1.481.488c-.627.778.011 1.629.011 1.629s.374.483.871.516c.496.056.817-.141.817-.141s.46-.352.822-.39c.363-.037 2.355-.108 2.355-.108l1.064-.068.817-.118.544-.079.364-.105.207-.154 2.064-.273c-.001.023.021.069.02.091l.202.073.137-.02.088.07s.121.726.14.862c.02.136.156.139.156.139l.794-.141s1.498.8 2.617 1.367c1.119.544 8.393 4.114 8.393 4.114s-1.916 9.276-1.917 9.299l-.001.045.022.046 9.327 2.709.046-.022.047-.067 4.806-16.497.269.12.164-.291 1.858-6.496.253-1.261c.069-.067.047-.112.002-.113z"/><path fill="#393838" d="M280.881 196.592c.194.479.227 1.023.104 1.518l-3.214 11.804a2.533 2.533 0 0 1-.842 1.271l-.092.066-.091.066-.092.043-.045.022-.092.043-.091.043-.092.043-.091.044-.091.043-.091.021-.091.02-.091.021-.045-.001-.091.021-.091-.002-.09-.002-.203-.004-.091-.002-.045-.001-.09-.002-.09-.025-.09-.024-.09-.025-.09-.024-.09-.047-.089-.048-.09-.047-.022-.023-.089-.047-.09-.047-.089-.047-.09-.047-.089-.07-.088-.07-.023-.023-.066-.069-.066-.069-.067-.07-.066-.069-.066-.069-.066-.092-.044-.091-.022-.024-.043-.091-.043-.091-.044-.092-.043-.091-.043-.091-.021-.091-.021-.091.001-.023-.021-.091-.02-.091-.021-.091.002-.09.002-.09.002-.113.003-.113.002-.113.001-.046.025-.09.024-.09.025-.089 3.214-11.805.024-.09.025-.09.024-.09.024-.044.047-.09.047-.089.047-.09.047-.089.047-.09.07-.089.069-.066.07-.066.023-.022.069-.067.069-.066.07-.067.091-.065.092-.066.092-.044.091-.043.023.001.091-.044.091-.043.092-.043.091-.043.092-.044.09-.02.091-.021h.023l.091-.02.091-.021.09.002.091.002.226.005.09.002.091.002.089.024.09.025.09.024.09.025.09.047.089.047.045.023.089.048.09.047.089.047.09.047.089.047.089.07.022.023.067.069.066.07.066.069.067.069.066.069.066.07.066.091.044.092.021.045.044.092.043.091.09.002z"/><path fill="#231815" d="m297.343 118.111 9.438 2.801-10.862 37.49-9.438-2.801 10.862-37.49z"/><path fill="#BBD98E" d="M394.261 259.821a1.905 1.905 0 0 1-1.857-1.984c.045-1.04.921-1.835 1.961-1.813l1.876.04-.015.701-1.899-.041a1.206 1.206 0 0 0-1.223 1.173l-.001.022a1.23 1.23 0 0 0 1.151 1.201c.497.01.932-.252 1.122-.677l.746.016a1.888 1.888 0 0 1-1.861 1.362z"/><path fill="#212121" d="M302.692 81.522a4.593 4.593 0 0 0-4.491-4.687 4.593 4.593 0 0 0-4.687 4.491 4.593 4.593 0 0 0 4.491 4.687 4.593 4.593 0 0 0 4.687-4.491z"/><path fill="#373838" d="M257.703 264.443c6.666.142 12.186-5.147 12.328-11.814.142-6.666-5.147-12.186-11.814-12.328-6.666-.142-12.186 5.147-12.328 11.814-.142 6.666 5.147 12.186 11.814 12.328z"/><path fill="#373838" d="m269.78 237.405-8.466-2.771-4.212 12.872 8.466 2.77 4.212-12.871z"/><path fill="#393838" d="M280.881 196.592c.194.479.227 1.023.104 1.518l-3.214 11.804a2.533 2.533 0 0 1-.842 1.271l-.092.066-.091.066-.092.043-.045.022-.092.043-.091.043-.092.043-.091.044-.091.043-.091.021-.091.02-.091.021-.045-.001-.091.021-.091-.002-.09-.002-.203-.004-.091-.002-.045-.001-.09-.002-.09-.025-.09-.024-.09-.025-.09-.024-.09-.047-.089-.048-.09-.047-.022-.023-.089-.047-.09-.047-.089-.047-.09-.047-.089-.07-.088-.07-.023-.023-.066-.069-.066-.069-.067-.07-.066-.069-.066-.069-.066-.092-.044-.091-.022-.024-.043-.091-.043-.091-.044-.092-.043-.091-.043-.091-.021-.091-.021-.091.001-.023-.021-.091-.02-.091-.021-.091.002-.09.002-.09.002-.113.003-.113.002-.113.001-.046.025-.09.024-.09.025-.089 3.214-11.805.024-.09.025-.09.024-.09.024-.044.047-.09.047-.089.047-.09.047-.089.047-.09.07-.089.069-.066.07-.066.023-.022.069-.067.069-.066.07-.067.091-.065.092-.066.092-.044.091-.043.023.001.091-.044.091-.043.092-.043.091-.043.092-.044.09-.02.091-.021h.023l.091-.02.091-.021.09.002.091.002.226.005.09.002.091.002.089.024.09.025.09.024.09.025.09.047.089.047.045.023.089.048.09.047.089.047.09.047.089.047.089.07.022.023.067.069.066.07.066.069.067.069.066.069.066.07.066.091.044.092.021.045.044.092.043.091.09.002z"/><path fill="#FCD703" d="m275.351 211.016-.068-.001-.113-.025-.067-.002-.068-.024-.067-.024-.067-.024-.09-.025-.068-.024-.089-.047-.067-.024-.067-.046-.067-.047-.044-.046-.067-.047-.067-.047-.044-.046-.067-.069-.044-.046-.066-.069-.044-.047-.044-.068-.044-.069-.044-.069-.044-.069-.043-.068-.021-.069-.022-.068-.021-.068-.021-.069-.02-.113-.021-.068.001-.068.002-.068.001-.068.002-.09.001-.068.002-.091.002-.09.024-.067.025-.09 3.213-11.782.024-.067.025-.09.025-.09.024-.067.046-.067.024-.045.046-.067.047-.044.046-.044.046-.067.07-.067.046-.066.047-.045.046-.044.068-.044.047-.044.068-.044.069-.043.069-.044.068-.021.069-.022.09-.02.069-.021.068-.022.091-.02.091-.021.068.002.067.001.068.001.181.004.068.002.068.001.068.002.067.024.067.024.068.024.09.024.089.025.09.047.067.024.067.047.067.046.044.047.067.046.089.07.044.046.044.046.067.07.044.068.044.046.044.047.066.092.044.068.044.069.064.16c.106.319.121.681.024 1.018l-3.214 11.782a1.663 1.663 0 0 1-.631.936l-.068.044-.069.043-.069.044-.091.044-.069.021-.068.043-.069.022-.068.021-.023-.001-.068.021-.068.022-.114.02-.067-.002-.068-.001-.181-.004z"/></g><path fill="#231815" d="M311.333 125.227c-.407-.103-.672-.475-.841-.86-.219-.495-.659-.86-1.299-1.025-1.29-.318-2.412.445-2.852 2.194-.443 1.761.152 2.969 1.48 3.309 1.192.294 2.069-.201 2.356-1.242l-1.157-.291a.67.67 0 0 1 .327-1.3l2.246.565c.32.08.514.405.433.725l-.114.456c-.551 2.186-2.388 3.143-4.488 2.615-2.336-.588-3.513-2.622-2.85-5.257.681-2.704 2.772-3.866 4.97-3.313 1.466.369 2.49 1.374 2.784 2.603.135.563-.434.962-.995.821z"/><path fill="#231815" d="m314.433 143.425-6.559-14.577c.472.107.862.129 1.31-.05.565-.285.731-.627.834-.794l6.609 14.746-2.194.675z"/><path fill="#0CB950" d="M336.797 149.264c1.821 10.903-6.511 19.472-18.267 21.201l-6.317-37.813c9.803-1.762 22.763 5.708 24.584 16.612z"/><path fill="#2CCD6C" d="M334.683 151.646c.809 4.846-.39 9.228-3.001 12.756 4.035-3.837 6.118-9.132 5.115-15.139-1.822-10.903-14.81-18.477-24.584-16.611l.533 3.188c9.703.676 20.292 5.962 21.937 15.806z"/><path fill="#231815" d="M321.735 138.629a.825.825 0 0 1 .115-.839c.339-.447 1.034-.592 1.554-.323 13.77 7.136 9.888 17.412 9.847 17.515-.198.5-.835.785-1.423.635-.585-.149-.902-.673-.706-1.174.141-.363 3.322-9.001-8.942-15.356a.95.95 0 0 1-.445-.458z"/><path fill="#231815" d="M320.682 141.963a.83.83 0 0 1 .144-.875c.362-.435 1.063-.552 1.567-.263 8.195 4.71 7.706 11.477 7.683 11.762-.046.521-.584.928-1.202.908-.618-.02-1.08-.457-1.038-.977.02-.246.383-6.017-6.752-10.119a.928.928 0 0 1-.402-.436z"/><defs><clipPath id="a"><path fill="#fff" d="m240.067 71.136 205.045 4.37-4.308 202.107-205.045-4.37z"/></clipPath></defs></svg>